# xmcd CD database file
#
# Track frame offsets:
#	150
#	35017
#	69958
#	86448
#	111415
#	127391
#
# Disc length: 2100 seconds
#
# Revision: 0
# Processed by: cddbd v1.5.2PL0 Copyright (c) Steve Scherf et al.
# Submitted via: CDex 1.70beta2
#
DISCID=53083206
DTITLE=Walter Bishop Jr. - Piano Solo
DYEAR=1900
DGENRE=Jazz
TTITLE0=Up Jumped Spring
TTITLE1=Everytime We Say Goodbye
TTITLE2=I Got Rhythm
TTITLE3=Valley Land News
TTITLE4=All the things you are
TTITLE5=I Can't Get Started
EXTD=
EXTT0=
EXTT1=
EXTT2=
EXTT3=
EXTT4=
EXTT5=
PLAYORDER=
